G04 #@! TF.GenerationSoftware,KiCad,Pcbnew,9.0.4-9.0.4-0~ubuntu22.04.1*
G04 #@! TF.CreationDate,2025-10-28T06:57:14-06:00*
G04 #@! TF.ProjectId,hootswitch,686f6f74-7377-4697-9463-682e6b696361,rev?*
G04 #@! TF.SameCoordinates,Original*
G04 #@! TF.FileFunction,Soldermask,Bot*
G04 #@! TF.FilePolarity,Negative*
%FSLAX46Y46*%
G04 Gerber Fmt 4.6, Leading zero omitted, Abs format (unit mm)*
G04 Created by KiCad (PCBNEW 9.0.4-9.0.4-0~ubuntu22.04.1) date 2025-10-28 06:57:14*
%MOMM*%
%LPD*%
G01*
G04 APERTURE LIST*
G04 Aperture macros list*
%AMRoundRect*
0 Rectangle with rounded corners*
0 $1 Rounding radius*
0 $2 $3 $4 $5 $6 $7 $8 $9 X,Y pos of 4 corners*
0 Add a 4 corners polygon primitive as box body*
4,1,4,$2,$3,$4,$5,$6,$7,$8,$9,$2,$3,0*
0 Add four circle primitives for the rounded corners*
1,1,$1+$1,$2,$3*
1,1,$1+$1,$4,$5*
1,1,$1+$1,$6,$7*
1,1,$1+$1,$8,$9*
0 Add four rect primitives between the rounded corners*
20,1,$1+$1,$2,$3,$4,$5,0*
20,1,$1+$1,$4,$5,$6,$7,0*
20,1,$1+$1,$6,$7,$8,$9,0*
20,1,$1+$1,$8,$9,$2,$3,0*%
G04 Aperture macros list end*
%ADD10O,1.800000X1.800000*%
%ADD11O,1.500000X1.500000*%
%ADD12O,1.700000X1.700000*%
%ADD13R,1.700000X1.700000*%
%ADD14C,1.702000*%
%ADD15RoundRect,0.102000X0.749000X-0.749000X0.749000X0.749000X-0.749000X0.749000X-0.749000X-0.749000X0*%
%ADD16C,2.700000*%
%ADD17C,1.400000*%
%ADD18C,3.200000*%
%ADD19C,1.600000*%
%ADD20R,4.000000X4.000000*%
%ADD21C,3.300000*%
%ADD22C,3.500000*%
%ADD23R,2.000000X2.000000*%
%ADD24C,2.000000*%
G04 APERTURE END LIST*
D10*
X112725000Y-145000000D03*
D11*
X112425000Y-141970000D03*
X107575000Y-141970000D03*
D10*
X107275000Y-145000000D03*
D12*
X118890000Y-145130000D03*
X118890000Y-142590000D03*
D13*
X118890000Y-140050000D03*
D12*
X118890000Y-137510000D03*
X118890000Y-134970000D03*
X118890000Y-132430000D03*
X118890000Y-129890000D03*
D13*
X118890000Y-127350000D03*
D12*
X118890000Y-124810000D03*
X118890000Y-122270000D03*
X118890000Y-119730000D03*
X118890000Y-117190000D03*
D13*
X118890000Y-114650000D03*
D12*
X118890000Y-112110000D03*
X118890000Y-109570000D03*
X118890000Y-107030000D03*
X118890000Y-104490000D03*
D13*
X118890000Y-101950000D03*
D12*
X118890000Y-99410000D03*
X118890000Y-96870000D03*
X101110000Y-96870000D03*
X101110000Y-99410000D03*
D13*
X101110000Y-101950000D03*
D12*
X101110000Y-104490000D03*
X101110000Y-107030000D03*
X101110000Y-109570000D03*
X101110000Y-112110000D03*
D13*
X101110000Y-114650000D03*
D12*
X101110000Y-117190000D03*
X101110000Y-119730000D03*
X101110000Y-122270000D03*
X101110000Y-124810000D03*
D13*
X101110000Y-127350000D03*
D12*
X101110000Y-129890000D03*
X101110000Y-132430000D03*
X101110000Y-134970000D03*
X101110000Y-137510000D03*
D13*
X101110000Y-140050000D03*
D12*
X101110000Y-142590000D03*
X101110000Y-145130000D03*
D14*
X156490000Y-145610000D03*
D15*
X151990000Y-145610000D03*
D14*
X156490000Y-139110000D03*
X151990000Y-139110000D03*
D16*
X70000000Y-74000000D03*
D17*
X68500000Y-126350000D03*
X68500000Y-119650000D03*
X71000000Y-126350000D03*
X71000000Y-119650000D03*
D18*
X65510000Y-129760000D03*
X64700000Y-123000000D03*
X65510000Y-116240000D03*
D17*
X136630000Y-68490000D03*
X143330000Y-68490000D03*
X136630000Y-70990000D03*
X143330000Y-70990000D03*
D18*
X133220000Y-65500000D03*
X139980000Y-64690000D03*
X146740000Y-65500000D03*
D13*
X156718000Y-132583000D03*
D12*
X156718000Y-135123000D03*
D17*
X76670000Y-68490000D03*
X83370000Y-68490000D03*
X76670000Y-70990000D03*
X83370000Y-70990000D03*
D18*
X73260000Y-65500000D03*
X80020000Y-64690000D03*
X86780000Y-65500000D03*
D19*
X63100000Y-94000000D03*
D20*
X72100000Y-94000000D03*
D21*
X66100000Y-94000000D03*
D22*
X65100000Y-89500000D03*
X65100000Y-98500000D03*
D23*
X152400000Y-109230000D03*
D24*
X152400000Y-116830000D03*
D13*
X88265000Y-110490000D03*
D12*
X88265000Y-113030000D03*
X88265000Y-115570000D03*
X88265000Y-118110000D03*
D16*
X150000000Y-74000000D03*
D17*
X96680000Y-68490000D03*
X103380000Y-68490000D03*
X96680000Y-70990000D03*
X103380000Y-70990000D03*
D18*
X93270000Y-65500000D03*
X100030000Y-64690000D03*
X106790000Y-65500000D03*
D17*
X116650000Y-68490000D03*
X123350000Y-68490000D03*
X116650000Y-70990000D03*
X123350000Y-70990000D03*
D18*
X113240000Y-65500000D03*
X120000000Y-64690000D03*
X126760000Y-65500000D03*
D24*
X64770000Y-109855000D03*
X69850000Y-109855000D03*
D16*
X150000000Y-134000000D03*
D17*
X83350000Y-139500000D03*
X76650000Y-139500000D03*
X83350000Y-137000000D03*
X76650000Y-137000000D03*
D18*
X86760000Y-142490000D03*
X80000000Y-143300000D03*
X73240000Y-142490000D03*
D16*
X70000000Y-134000000D03*
D13*
X91325000Y-137389000D03*
D12*
X93865000Y-137389000D03*
X91325000Y-139929000D03*
X93865000Y-139929000D03*
D13*
X71755000Y-102870000D03*
D12*
X69215000Y-102870000D03*
M02*
