G04 #@! TF.GenerationSoftware,KiCad,Pcbnew,9.0.4-9.0.4-0~ubuntu22.04.1*
G04 #@! TF.CreationDate,2025-10-29T06:09:25-06:00*
G04 #@! TF.ProjectId,WOOTSwitch,574f4f54-5377-4697-9463-682e6b696361,rev?*
G04 #@! TF.SameCoordinates,Original*
G04 #@! TF.FileFunction,Soldermask,Bot*
G04 #@! TF.FilePolarity,Negative*
%FSLAX46Y46*%
G04 Gerber Fmt 4.6, Leading zero omitted, Abs format (unit mm)*
G04 Created by KiCad (PCBNEW 9.0.4-9.0.4-0~ubuntu22.04.1) date 2025-10-29 06:09:25*
%MOMM*%
%LPD*%
G01*
G04 APERTURE LIST*
G04 Aperture macros list*
%AMRoundRect*
0 Rectangle with rounded corners*
0 $1 Rounding radius*
0 $2 $3 $4 $5 $6 $7 $8 $9 X,Y pos of 4 corners*
0 Add a 4 corners polygon primitive as box body*
4,1,4,$2,$3,$4,$5,$6,$7,$8,$9,$2,$3,0*
0 Add four circle primitives for the rounded corners*
1,1,$1+$1,$2,$3*
1,1,$1+$1,$4,$5*
1,1,$1+$1,$6,$7*
1,1,$1+$1,$8,$9*
0 Add four rect primitives between the rounded corners*
20,1,$1+$1,$2,$3,$4,$5,0*
20,1,$1+$1,$4,$5,$6,$7,0*
20,1,$1+$1,$6,$7,$8,$9,0*
20,1,$1+$1,$8,$9,$2,$3,0*%
G04 Aperture macros list end*
%ADD10C,2.700000*%
%ADD11C,1.400000*%
%ADD12C,3.200000*%
%ADD13R,1.700000X1.700000*%
%ADD14O,1.700000X1.700000*%
%ADD15RoundRect,0.102000X0.749000X0.749000X-0.749000X0.749000X-0.749000X-0.749000X0.749000X-0.749000X0*%
%ADD16C,1.702000*%
%ADD17O,1.800000X1.800000*%
%ADD18O,1.500000X1.500000*%
%ADD19R,2.000000X2.000000*%
%ADD20C,2.000000*%
%ADD21C,0.650000*%
%ADD22O,2.100000X1.000000*%
%ADD23O,1.600000X1.000000*%
G04 APERTURE END LIST*
D10*
X66000000Y-66000000D03*
D11*
X68500000Y-126350000D03*
X68500000Y-119650000D03*
X71000000Y-126350000D03*
X71000000Y-119650000D03*
D12*
X65510000Y-129760000D03*
X64700000Y-123000000D03*
X65510000Y-116240000D03*
D11*
X136630000Y-68490000D03*
X143330000Y-68490000D03*
X136630000Y-70990000D03*
X143330000Y-70990000D03*
D12*
X133220000Y-65500000D03*
X139980000Y-64690000D03*
X146740000Y-65500000D03*
D13*
X157300000Y-131235000D03*
D14*
X157300000Y-133775000D03*
D15*
X154235000Y-134750000D03*
D16*
X147735000Y-134750000D03*
X154235000Y-130250000D03*
X147735000Y-130250000D03*
D11*
X76670000Y-68490000D03*
X83370000Y-68490000D03*
X76670000Y-70990000D03*
X83370000Y-70990000D03*
D12*
X73260000Y-65500000D03*
X80020000Y-64690000D03*
X86780000Y-65500000D03*
D17*
X112725000Y-145000000D03*
D18*
X112425000Y-141970000D03*
X107575000Y-141970000D03*
D17*
X107275000Y-145000000D03*
D14*
X118890000Y-145130000D03*
X118890000Y-142590000D03*
D13*
X118890000Y-140050000D03*
D14*
X118890000Y-137510000D03*
X118890000Y-134970000D03*
X118890000Y-132430000D03*
X118890000Y-129890000D03*
D13*
X118890000Y-127350000D03*
D14*
X118890000Y-124810000D03*
X118890000Y-122270000D03*
X118890000Y-119730000D03*
X118890000Y-117190000D03*
D13*
X118890000Y-114650000D03*
D14*
X118890000Y-112110000D03*
X118890000Y-109570000D03*
X118890000Y-107030000D03*
X118890000Y-104490000D03*
D13*
X118890000Y-101950000D03*
D14*
X118890000Y-99410000D03*
X118890000Y-96870000D03*
X101110000Y-96870000D03*
X101110000Y-99410000D03*
D13*
X101110000Y-101950000D03*
D14*
X101110000Y-104490000D03*
X101110000Y-107030000D03*
X101110000Y-109570000D03*
X101110000Y-112110000D03*
D13*
X101110000Y-114650000D03*
D14*
X101110000Y-117190000D03*
X101110000Y-119730000D03*
X101110000Y-122270000D03*
X101110000Y-124810000D03*
D13*
X101110000Y-127350000D03*
D14*
X101110000Y-129890000D03*
X101110000Y-132430000D03*
X101110000Y-134970000D03*
X101110000Y-137510000D03*
D13*
X101110000Y-140050000D03*
D14*
X101110000Y-142590000D03*
X101110000Y-145130000D03*
D19*
X152400000Y-109230000D03*
D20*
X152400000Y-116830000D03*
D13*
X88265000Y-110490000D03*
D14*
X88265000Y-113030000D03*
X88265000Y-115570000D03*
X88265000Y-118110000D03*
D10*
X154000000Y-66000000D03*
D11*
X96680000Y-68490000D03*
X103380000Y-68490000D03*
X96680000Y-70990000D03*
X103380000Y-70990000D03*
D12*
X93270000Y-65500000D03*
X100030000Y-64690000D03*
X106790000Y-65500000D03*
D21*
X66250000Y-94990000D03*
X66250000Y-100770000D03*
D22*
X66780000Y-93560000D03*
D23*
X62600000Y-93560000D03*
D22*
X66780000Y-102200000D03*
D23*
X62600000Y-102200000D03*
D11*
X116650000Y-68490000D03*
X123350000Y-68490000D03*
X116650000Y-70990000D03*
X123350000Y-70990000D03*
D12*
X113240000Y-65500000D03*
X120000000Y-64690000D03*
X126760000Y-65500000D03*
D10*
X154000000Y-142000000D03*
D11*
X83350000Y-139500000D03*
X76650000Y-139500000D03*
X83350000Y-137000000D03*
X76650000Y-137000000D03*
D12*
X86760000Y-142490000D03*
X80000000Y-143300000D03*
X73240000Y-142490000D03*
D10*
X66000000Y-142000000D03*
M02*
