M48
; DRILL file {KiCad 9.0.4-9.0.4-0~ubuntu22.04.1} date 2025-10-29T06:09:26-0600
; FORMAT={-:-/ absolute / inch / decimal}
; #@! TF.CreationDate,2025-10-29T06:09:26-06:00
; #@! TF.GenerationSoftware,Kicad,Pcbnew,9.0.4-9.0.4-0~ubuntu22.04.1
; #@! TF.FileFunction,Plated,1,2,PTH
FMAT,2
INCH
; #@! TA.AperFunction,Plated,PTH,ViaDrill
T1C0.0157
; #@! TA.AperFunction,Plated,PTH,ComponentDrill
T2C0.0236
; #@! TA.AperFunction,Plated,PTH,ComponentDrill
T3C0.0354
; #@! TA.AperFunction,Plated,PTH,ComponentDrill
T4C0.0390
; #@! TA.AperFunction,Plated,PTH,ComponentDrill
T5C0.0394
; #@! TA.AperFunction,Plated,PTH,ComponentDrill
T6C0.0402
; #@! TA.AperFunction,Plated,PTH,ComponentDrill
T7C0.0933
%
G90
G05
T1
X2.4134Y-4.2965
X2.4189Y-3.2614
X2.4992Y-4.4496
X2.5429Y-4.1732
X2.6559Y-4.2823
X2.6819Y-5.1866
X2.7122Y-4.2126
X2.7689Y-4.2846
X2.7835Y-4.0732
X2.7886Y-4.3504
X2.8071Y-5.4217
X2.8098Y-3.3047
X2.8102Y-4.4169
X2.8291Y-4.3504
X2.8299Y-4.1567
X2.8374Y-3.6453
X2.8571Y-4.8472
X2.8681Y-4.3504
X2.8815Y-4.4157
X2.8894Y-4.1827
X2.9047Y-4.3504
X2.9114Y-4.0697
X2.9236Y-3.8819
X2.9551Y-3.9071
X3.0161Y-3.6563
X3.0327Y-4.3571
X3.0555Y-3.0969
X3.0567Y-3.1642
X3.065Y-3.4587
X3.0717Y-3.2835
X3.072Y-4.0524
X3.0803Y-5.1429
X3.1126Y-4.0091
X3.1205Y-4.9429
X3.1228Y-3.3256
X3.1768Y-4.2157
X3.2287Y-5.0516
X3.2539Y-3.4031
X3.2583Y-3.9535
X3.2697Y-3.8476
X3.2803Y-5.0693
X3.2803Y-5.1443
X3.2803Y-5.2193
X3.337Y-5.3917
X3.3687Y-5.3915
X3.4327Y-3.2827
X3.4445Y-5.4634
X3.4705Y-5.1736
X3.5776Y-3.3083
X3.6028Y-4.8799
X3.6043Y-4.9272
X3.6083Y-4.9791
X3.6232Y-5.45
X3.6236Y-5.0425
X3.6236Y-5.5992
X3.625Y-4.65
X3.6752Y-5.2055
X3.6764Y-5.3539
X3.6799Y-5.4492
X3.6862Y-4.072
X3.7378Y-5.2811
X3.7445Y-3.963
X3.7472Y-3.9031
X3.7528Y-4.9992
X3.7539Y-5.0646
X3.805Y-4.815
X3.805Y-4.915
X3.8051Y-4.9724
X3.8075Y-4.7528
X3.8201Y-3.0882
X3.8201Y-3.1669
X3.8295Y-3.2878
X3.8346Y-4.2646
X3.837Y-4.865
X3.8378Y-3.452
X3.8854Y-3.4071
X3.9024Y-3.3469
X3.9311Y-3.2882
X4.0291Y-3.6961
X4.0398Y-3.2819
X4.0512Y-3.435
X4.0626Y-5.7157
X4.0669Y-4.1862
X4.1004Y-3.2709
X4.1161Y-4.187
X4.2071Y-5.0854
X4.2102Y-4.6169
X4.2276Y-3.274
X4.326Y-5.1913
X4.3638Y-3.3051
X4.461Y-4.3213
X4.4618Y-4.2642
X4.4638Y-4.2126
X4.55Y-3.6846
X4.5992Y-5.6717
X4.602Y-3.0976
X4.6031Y-3.1598
X4.6142Y-3.2819
X4.6465Y-3.3862
X4.7173Y-3.2768
X4.7268Y-3.7465
X4.8134Y-3.7236
X4.845Y-5.31
X4.845Y-5.41
X4.845Y-5.615
X4.845Y-5.715
X4.8531Y-3.6457
X4.8638Y-4.7114
X4.8748Y-4.8106
X4.91Y-5.01
X4.91Y-5.205
X4.9307Y-4.1256
X5.0055Y-4.0933
X5.025Y-5.715
X5.0315Y-3.2807
X5.0559Y-3.5094
X5.06Y-5.01
X5.06Y-5.205
X5.175Y-5.615
X5.176Y-5.7453
X5.21Y-5.01
X5.21Y-5.205
X5.325Y-5.41
X5.36Y-5.01
X5.36Y-5.205
X5.3839Y-3.2768
X5.3858Y-3.1067
X5.4142Y-3.1854
X5.4272Y-3.3882
X5.478Y-3.4776
X5.48Y-5.41
X5.51Y-5.01
X5.51Y-5.205
X5.5846Y-3.863
X5.5882Y-3.2717
X5.66Y-5.01
X5.66Y-5.205
X5.7406Y-3.4563
X5.7654Y-3.2705
X5.8732Y-3.3035
X5.95Y-4.98
X6.19Y-5.015
X6.1933Y-3.6382
T3
X2.6969Y-4.7106
X2.6969Y-4.9744
X2.7953Y-4.7106
X2.7953Y-4.9744
X3.0177Y-5.3937
X3.0177Y-5.4921
X3.0185Y-2.6965
X3.0185Y-2.7949
X3.2815Y-5.3937
X3.2815Y-5.4921
X3.2823Y-2.6965
X3.2823Y-2.7949
X3.8063Y-2.6965
X3.8063Y-2.7949
X4.0701Y-2.6965
X4.0701Y-2.7949
X4.5925Y-2.6965
X4.5925Y-2.7949
X4.8563Y-2.6965
X4.8563Y-2.7949
X5.3791Y-2.6965
X5.3791Y-2.7949
X5.6429Y-2.6965
X5.6429Y-2.7949
T4
X5.8163Y-5.128
X5.8163Y-5.3051
X6.0722Y-5.128
X6.0722Y-5.3051
T5
X3.475Y-4.35
X3.475Y-4.45
X3.475Y-4.55
X3.475Y-4.65
X6.0Y-4.3004
X6.0Y-4.5996
X6.1929Y-5.1667
X6.1929Y-5.2667
T6
X3.9807Y-3.8138
X3.9807Y-3.9138
X3.9807Y-4.0138
X3.9807Y-4.1138
X3.9807Y-4.2138
X3.9807Y-4.3138
X3.9807Y-4.4138
X3.9807Y-4.5138
X3.9807Y-4.6138
X3.9807Y-4.7138
X3.9807Y-4.8138
X3.9807Y-4.9138
X3.9807Y-5.0138
X3.9807Y-5.1138
X3.9807Y-5.2138
X3.9807Y-5.3138
X3.9807Y-5.4138
X3.9807Y-5.5138
X3.9807Y-5.6138
X3.9807Y-5.7138
X4.6807Y-3.8138
X4.6807Y-3.9138
X4.6807Y-4.0138
X4.6807Y-4.1138
X4.6807Y-4.2138
X4.6807Y-4.3138
X4.6807Y-4.4138
X4.6807Y-4.5138
X4.6807Y-4.6138
X4.6807Y-4.7138
X4.6807Y-4.8138
X4.6807Y-4.9138
X4.6807Y-5.0138
X4.6807Y-5.1138
X4.6807Y-5.2138
X4.6807Y-5.3138
X4.6807Y-5.4138
X4.6807Y-5.5138
X4.6807Y-5.6138
X4.6807Y-5.7138
T7
X2.5472Y-4.8425
X2.5791Y-4.5764
X2.5791Y-5.1087
X2.8835Y-5.6098
X2.8843Y-2.5787
X3.1496Y-5.6417
X3.1504Y-2.5469
X3.4157Y-5.6098
X3.4165Y-2.5787
X3.672Y-2.5787
X3.9382Y-2.5469
X4.2043Y-2.5787
X4.4583Y-2.5787
X4.7244Y-2.5469
X4.9906Y-2.5787
X5.2449Y-2.5787
X5.511Y-2.5469
X5.7772Y-2.5787
T2
G00X2.4764Y-3.6835
M15
G01X2.4528Y-3.6835
M16
G05
G00X2.4764Y-4.0236
M15
G01X2.4528Y-4.0236
M16
G05
G00X2.6508Y-3.6835
M15
G01X2.6075Y-3.6835
M16
G05
G00X2.6508Y-4.0236
M15
G01X2.6075Y-4.0236
M16
G05
M30
