G04 #@! TF.GenerationSoftware,KiCad,Pcbnew,9.0.4-9.0.4-0~ubuntu22.04.1*
G04 #@! TF.CreationDate,2025-10-29T06:09:25-06:00*
G04 #@! TF.ProjectId,WOOTSwitch,574f4f54-5377-4697-9463-682e6b696361,rev?*
G04 #@! TF.SameCoordinates,Original*
G04 #@! TF.FileFunction,Legend,Bot*
G04 #@! TF.FilePolarity,Positive*
%FSLAX46Y46*%
G04 Gerber Fmt 4.6, Leading zero omitted, Abs format (unit mm)*
G04 Created by KiCad (PCBNEW 9.0.4-9.0.4-0~ubuntu22.04.1) date 2025-10-29 06:09:25*
%MOMM*%
%LPD*%
G01*
G04 APERTURE LIST*
G04 Aperture macros list*
%AMRoundRect*
0 Rectangle with rounded corners*
0 $1 Rounding radius*
0 $2 $3 $4 $5 $6 $7 $8 $9 X,Y pos of 4 corners*
0 Add a 4 corners polygon primitive as box body*
4,1,4,$2,$3,$4,$5,$6,$7,$8,$9,$2,$3,0*
0 Add four circle primitives for the rounded corners*
1,1,$1+$1,$2,$3*
1,1,$1+$1,$4,$5*
1,1,$1+$1,$6,$7*
1,1,$1+$1,$8,$9*
0 Add four rect primitives between the rounded corners*
20,1,$1+$1,$2,$3,$4,$5,0*
20,1,$1+$1,$4,$5,$6,$7,0*
20,1,$1+$1,$6,$7,$8,$9,0*
20,1,$1+$1,$8,$9,$2,$3,0*%
G04 Aperture macros list end*
%ADD10C,0.250000*%
%ADD11C,2.700000*%
%ADD12C,1.400000*%
%ADD13C,3.200000*%
%ADD14R,1.700000X1.700000*%
%ADD15O,1.700000X1.700000*%
%ADD16RoundRect,0.102000X0.749000X0.749000X-0.749000X0.749000X-0.749000X-0.749000X0.749000X-0.749000X0*%
%ADD17C,1.702000*%
%ADD18O,1.800000X1.800000*%
%ADD19O,1.500000X1.500000*%
%ADD20R,2.000000X2.000000*%
%ADD21C,2.000000*%
%ADD22C,0.650000*%
%ADD23O,2.100000X1.000000*%
%ADD24O,1.600000X1.000000*%
G04 APERTURE END LIST*
D10*
X84981241Y-111358554D02*
X85481241Y-110644268D01*
X85838384Y-111358554D02*
X85838384Y-109858554D01*
X85838384Y-109858554D02*
X85266955Y-109858554D01*
X85266955Y-109858554D02*
X85124098Y-109929983D01*
X85124098Y-109929983D02*
X85052669Y-110001411D01*
X85052669Y-110001411D02*
X84981241Y-110144268D01*
X84981241Y-110144268D02*
X84981241Y-110358554D01*
X84981241Y-110358554D02*
X85052669Y-110501411D01*
X85052669Y-110501411D02*
X85124098Y-110572840D01*
X85124098Y-110572840D02*
X85266955Y-110644268D01*
X85266955Y-110644268D02*
X85838384Y-110644268D01*
X84481241Y-109858554D02*
X83481241Y-111358554D01*
X83481241Y-109858554D02*
X84481241Y-111358554D01*
X81838384Y-109787126D02*
X83124098Y-111715697D01*
X81409812Y-111287126D02*
X81195527Y-111358554D01*
X81195527Y-111358554D02*
X80838384Y-111358554D01*
X80838384Y-111358554D02*
X80695527Y-111287126D01*
X80695527Y-111287126D02*
X80624098Y-111215697D01*
X80624098Y-111215697D02*
X80552669Y-111072840D01*
X80552669Y-111072840D02*
X80552669Y-110929983D01*
X80552669Y-110929983D02*
X80624098Y-110787126D01*
X80624098Y-110787126D02*
X80695527Y-110715697D01*
X80695527Y-110715697D02*
X80838384Y-110644268D01*
X80838384Y-110644268D02*
X81124098Y-110572840D01*
X81124098Y-110572840D02*
X81266955Y-110501411D01*
X81266955Y-110501411D02*
X81338384Y-110429983D01*
X81338384Y-110429983D02*
X81409812Y-110287126D01*
X81409812Y-110287126D02*
X81409812Y-110144268D01*
X81409812Y-110144268D02*
X81338384Y-110001411D01*
X81338384Y-110001411D02*
X81266955Y-109929983D01*
X81266955Y-109929983D02*
X81124098Y-109858554D01*
X81124098Y-109858554D02*
X80766955Y-109858554D01*
X80766955Y-109858554D02*
X80552669Y-109929983D01*
X79052670Y-111215697D02*
X79124098Y-111287126D01*
X79124098Y-111287126D02*
X79338384Y-111358554D01*
X79338384Y-111358554D02*
X79481241Y-111358554D01*
X79481241Y-111358554D02*
X79695527Y-111287126D01*
X79695527Y-111287126D02*
X79838384Y-111144268D01*
X79838384Y-111144268D02*
X79909813Y-111001411D01*
X79909813Y-111001411D02*
X79981241Y-110715697D01*
X79981241Y-110715697D02*
X79981241Y-110501411D01*
X79981241Y-110501411D02*
X79909813Y-110215697D01*
X79909813Y-110215697D02*
X79838384Y-110072840D01*
X79838384Y-110072840D02*
X79695527Y-109929983D01*
X79695527Y-109929983D02*
X79481241Y-109858554D01*
X79481241Y-109858554D02*
X79338384Y-109858554D01*
X79338384Y-109858554D02*
X79124098Y-109929983D01*
X79124098Y-109929983D02*
X79052670Y-110001411D01*
X77695527Y-111358554D02*
X78409813Y-111358554D01*
X78409813Y-111358554D02*
X78409813Y-109858554D01*
X86052669Y-112273470D02*
X85195527Y-112273470D01*
X85624098Y-113773470D02*
X85624098Y-112273470D01*
X84838384Y-112273470D02*
X83838384Y-113773470D01*
X83838384Y-112273470D02*
X84838384Y-113773470D01*
X82195527Y-112202042D02*
X83481241Y-114130613D01*
X81766955Y-113702042D02*
X81552670Y-113773470D01*
X81552670Y-113773470D02*
X81195527Y-113773470D01*
X81195527Y-113773470D02*
X81052670Y-113702042D01*
X81052670Y-113702042D02*
X80981241Y-113630613D01*
X80981241Y-113630613D02*
X80909812Y-113487756D01*
X80909812Y-113487756D02*
X80909812Y-113344899D01*
X80909812Y-113344899D02*
X80981241Y-113202042D01*
X80981241Y-113202042D02*
X81052670Y-113130613D01*
X81052670Y-113130613D02*
X81195527Y-113059184D01*
X81195527Y-113059184D02*
X81481241Y-112987756D01*
X81481241Y-112987756D02*
X81624098Y-112916327D01*
X81624098Y-112916327D02*
X81695527Y-112844899D01*
X81695527Y-112844899D02*
X81766955Y-112702042D01*
X81766955Y-112702042D02*
X81766955Y-112559184D01*
X81766955Y-112559184D02*
X81695527Y-112416327D01*
X81695527Y-112416327D02*
X81624098Y-112344899D01*
X81624098Y-112344899D02*
X81481241Y-112273470D01*
X81481241Y-112273470D02*
X81124098Y-112273470D01*
X81124098Y-112273470D02*
X80909812Y-112344899D01*
X80266956Y-113773470D02*
X80266956Y-112273470D01*
X80266956Y-112273470D02*
X79909813Y-112273470D01*
X79909813Y-112273470D02*
X79695527Y-112344899D01*
X79695527Y-112344899D02*
X79552670Y-112487756D01*
X79552670Y-112487756D02*
X79481241Y-112630613D01*
X79481241Y-112630613D02*
X79409813Y-112916327D01*
X79409813Y-112916327D02*
X79409813Y-113130613D01*
X79409813Y-113130613D02*
X79481241Y-113416327D01*
X79481241Y-113416327D02*
X79552670Y-113559184D01*
X79552670Y-113559184D02*
X79695527Y-113702042D01*
X79695527Y-113702042D02*
X79909813Y-113773470D01*
X79909813Y-113773470D02*
X80266956Y-113773470D01*
X78838384Y-113344899D02*
X78124099Y-113344899D01*
X78981241Y-113773470D02*
X78481241Y-112273470D01*
X78481241Y-112273470D02*
X77981241Y-113773470D01*
X85981241Y-114688386D02*
X85052669Y-114688386D01*
X85052669Y-114688386D02*
X85552669Y-115259815D01*
X85552669Y-115259815D02*
X85338384Y-115259815D01*
X85338384Y-115259815D02*
X85195527Y-115331243D01*
X85195527Y-115331243D02*
X85124098Y-115402672D01*
X85124098Y-115402672D02*
X85052669Y-115545529D01*
X85052669Y-115545529D02*
X85052669Y-115902672D01*
X85052669Y-115902672D02*
X85124098Y-116045529D01*
X85124098Y-116045529D02*
X85195527Y-116116958D01*
X85195527Y-116116958D02*
X85338384Y-116188386D01*
X85338384Y-116188386D02*
X85766955Y-116188386D01*
X85766955Y-116188386D02*
X85909812Y-116116958D01*
X85909812Y-116116958D02*
X85981241Y-116045529D01*
X84409813Y-116045529D02*
X84338384Y-116116958D01*
X84338384Y-116116958D02*
X84409813Y-116188386D01*
X84409813Y-116188386D02*
X84481241Y-116116958D01*
X84481241Y-116116958D02*
X84409813Y-116045529D01*
X84409813Y-116045529D02*
X84409813Y-116188386D01*
X83838384Y-114688386D02*
X82909812Y-114688386D01*
X82909812Y-114688386D02*
X83409812Y-115259815D01*
X83409812Y-115259815D02*
X83195527Y-115259815D01*
X83195527Y-115259815D02*
X83052670Y-115331243D01*
X83052670Y-115331243D02*
X82981241Y-115402672D01*
X82981241Y-115402672D02*
X82909812Y-115545529D01*
X82909812Y-115545529D02*
X82909812Y-115902672D01*
X82909812Y-115902672D02*
X82981241Y-116045529D01*
X82981241Y-116045529D02*
X83052670Y-116116958D01*
X83052670Y-116116958D02*
X83195527Y-116188386D01*
X83195527Y-116188386D02*
X83624098Y-116188386D01*
X83624098Y-116188386D02*
X83766955Y-116116958D01*
X83766955Y-116116958D02*
X83838384Y-116045529D01*
X82481241Y-114688386D02*
X81981241Y-116188386D01*
X81981241Y-116188386D02*
X81481241Y-114688386D01*
X85052669Y-117174731D02*
X85195527Y-117103302D01*
X85195527Y-117103302D02*
X85409812Y-117103302D01*
X85409812Y-117103302D02*
X85624098Y-117174731D01*
X85624098Y-117174731D02*
X85766955Y-117317588D01*
X85766955Y-117317588D02*
X85838384Y-117460445D01*
X85838384Y-117460445D02*
X85909812Y-117746159D01*
X85909812Y-117746159D02*
X85909812Y-117960445D01*
X85909812Y-117960445D02*
X85838384Y-118246159D01*
X85838384Y-118246159D02*
X85766955Y-118389016D01*
X85766955Y-118389016D02*
X85624098Y-118531874D01*
X85624098Y-118531874D02*
X85409812Y-118603302D01*
X85409812Y-118603302D02*
X85266955Y-118603302D01*
X85266955Y-118603302D02*
X85052669Y-118531874D01*
X85052669Y-118531874D02*
X84981241Y-118460445D01*
X84981241Y-118460445D02*
X84981241Y-117960445D01*
X84981241Y-117960445D02*
X85266955Y-117960445D01*
X84338384Y-118603302D02*
X84338384Y-117103302D01*
X84338384Y-117103302D02*
X83481241Y-118603302D01*
X83481241Y-118603302D02*
X83481241Y-117103302D01*
X82766955Y-118603302D02*
X82766955Y-117103302D01*
X82766955Y-117103302D02*
X82409812Y-117103302D01*
X82409812Y-117103302D02*
X82195526Y-117174731D01*
X82195526Y-117174731D02*
X82052669Y-117317588D01*
X82052669Y-117317588D02*
X81981240Y-117460445D01*
X81981240Y-117460445D02*
X81909812Y-117746159D01*
X81909812Y-117746159D02*
X81909812Y-117960445D01*
X81909812Y-117960445D02*
X81981240Y-118246159D01*
X81981240Y-118246159D02*
X82052669Y-118389016D01*
X82052669Y-118389016D02*
X82195526Y-118531874D01*
X82195526Y-118531874D02*
X82409812Y-118603302D01*
X82409812Y-118603302D02*
X82766955Y-118603302D01*
%LPC*%
D11*
X66000000Y-66000000D03*
D12*
X68500000Y-126350000D03*
X68500000Y-119650000D03*
X71000000Y-126350000D03*
X71000000Y-119650000D03*
D13*
X65510000Y-129760000D03*
X64700000Y-123000000D03*
X65510000Y-116240000D03*
D12*
X136630000Y-68490000D03*
X143330000Y-68490000D03*
X136630000Y-70990000D03*
X143330000Y-70990000D03*
D13*
X133220000Y-65500000D03*
X139980000Y-64690000D03*
X146740000Y-65500000D03*
D14*
X157300000Y-131235000D03*
D15*
X157300000Y-133775000D03*
D16*
X154235000Y-134750000D03*
D17*
X147735000Y-134750000D03*
X154235000Y-130250000D03*
X147735000Y-130250000D03*
D12*
X76670000Y-68490000D03*
X83370000Y-68490000D03*
X76670000Y-70990000D03*
X83370000Y-70990000D03*
D13*
X73260000Y-65500000D03*
X80020000Y-64690000D03*
X86780000Y-65500000D03*
D18*
X112725000Y-145000000D03*
D19*
X112425000Y-141970000D03*
X107575000Y-141970000D03*
D18*
X107275000Y-145000000D03*
D15*
X118890000Y-145130000D03*
X118890000Y-142590000D03*
D14*
X118890000Y-140050000D03*
D15*
X118890000Y-137510000D03*
X118890000Y-134970000D03*
X118890000Y-132430000D03*
X118890000Y-129890000D03*
D14*
X118890000Y-127350000D03*
D15*
X118890000Y-124810000D03*
X118890000Y-122270000D03*
X118890000Y-119730000D03*
X118890000Y-117190000D03*
D14*
X118890000Y-114650000D03*
D15*
X118890000Y-112110000D03*
X118890000Y-109570000D03*
X118890000Y-107030000D03*
X118890000Y-104490000D03*
D14*
X118890000Y-101950000D03*
D15*
X118890000Y-99410000D03*
X118890000Y-96870000D03*
X101110000Y-96870000D03*
X101110000Y-99410000D03*
D14*
X101110000Y-101950000D03*
D15*
X101110000Y-104490000D03*
X101110000Y-107030000D03*
X101110000Y-109570000D03*
X101110000Y-112110000D03*
D14*
X101110000Y-114650000D03*
D15*
X101110000Y-117190000D03*
X101110000Y-119730000D03*
X101110000Y-122270000D03*
X101110000Y-124810000D03*
D14*
X101110000Y-127350000D03*
D15*
X101110000Y-129890000D03*
X101110000Y-132430000D03*
X101110000Y-134970000D03*
X101110000Y-137510000D03*
D14*
X101110000Y-140050000D03*
D15*
X101110000Y-142590000D03*
X101110000Y-145130000D03*
D20*
X152400000Y-109230000D03*
D21*
X152400000Y-116830000D03*
D14*
X88265000Y-110490000D03*
D15*
X88265000Y-113030000D03*
X88265000Y-115570000D03*
X88265000Y-118110000D03*
D11*
X154000000Y-66000000D03*
D12*
X96680000Y-68490000D03*
X103380000Y-68490000D03*
X96680000Y-70990000D03*
X103380000Y-70990000D03*
D13*
X93270000Y-65500000D03*
X100030000Y-64690000D03*
X106790000Y-65500000D03*
D22*
X66250000Y-94990000D03*
X66250000Y-100770000D03*
D23*
X66780000Y-93560000D03*
D24*
X62600000Y-93560000D03*
D23*
X66780000Y-102200000D03*
D24*
X62600000Y-102200000D03*
D12*
X116650000Y-68490000D03*
X123350000Y-68490000D03*
X116650000Y-70990000D03*
X123350000Y-70990000D03*
D13*
X113240000Y-65500000D03*
X120000000Y-64690000D03*
X126760000Y-65500000D03*
D11*
X154000000Y-142000000D03*
D12*
X83350000Y-139500000D03*
X76650000Y-139500000D03*
X83350000Y-137000000D03*
X76650000Y-137000000D03*
D13*
X86760000Y-142490000D03*
X80000000Y-143300000D03*
X73240000Y-142490000D03*
D11*
X66000000Y-142000000D03*
%LPD*%
M02*
